<?xml version="1.0" encoding="utf8" standalone="no"?>
<!-- Created with Inkscape (http://www.inkscape.org/) --><svg height="96" id="svg2408" version="1.0" width="96" xmlns="http://www.w3.org/2000/svg" xmlns:svg="http://www.w3.org/2000/svg" xmlns:xlink="http://www.w3.org/1999/xlink">
<defs id="defs2410">
<linearGradient id="linearGradient3737">
<stop id="stop3739" offset="0" stop-color="#ffffff"/>
<stop id="stop3741" offset="1" stop-color="#ffffff" stop-opacity="0"/>
</linearGradient>
<linearGradient gradientUnits="userSpaceOnUse" id="linearGradient3188" x1="36.357143" x2="36.357143" xlink:href="#linearGradient3737" y1="6" y2="63.893143"/>
<filter color-interpolation-filters="sRGB" height="1.3839999" id="filter3794" width="1.3839999" x="-0.192" y="-0.192">
<feGaussianBlur id="feGaussianBlur3796" stdDeviation="5.28"/>
</filter>
<linearGradient gradientUnits="userSpaceOnUse" id="linearGradient3613" x1="48" x2="48" xlink:href="#linearGradient3737" y1="20.220806" y2="138.66119"/>
<radialGradient cx="48" cy="90.171875" fx="48" fy="90.171875" gradientTransform="matrix(1.1573129,0,0,0.99590774,-7.5510206,0.19713193)" gradientUnits="userSpaceOnUse" id="radialGradient3619" r="42" xlink:href="#linearGradient3737"/>
<clipPath id="clipPath3613">
<rect fill="#ffffff" height="84" id="rect3615" rx="6" width="84" x="6" y="6"/>
</clipPath>
<linearGradient gradientTransform="matrix(1.0058652,0,0,0.994169,100,0)" gradientUnits="userSpaceOnUse" id="ButtonShadow-0" x1="45.447727" x2="45.447727" y1="92.539597" y2="7.0165396">
<stop id="stop3750-8" offset="0"/>
<stop id="stop3752-5" offset="1" stop-opacity="0.58823532"/>
</linearGradient>
<linearGradient gradientTransform="matrix(1.0238095,0,0,1.0119048,-1.1428571,-98.071429)" gradientUnits="userSpaceOnUse" id="linearGradient3780" x1="32.251034" x2="32.251034" xlink:href="#ButtonShadow-0" y1="6.1317081" y2="90.238609"/>
<linearGradient gradientTransform="matrix(1.0238095,0,0,1.0119048,-1.1428571,-98.071429)" gradientUnits="userSpaceOnUse" id="linearGradient3772" x1="32.251034" x2="32.251034" xlink:href="#ButtonShadow-0" y1="6.1317081" y2="90.238609"/>
<linearGradient gradientTransform="matrix(1.0238095,0,0,1.0119048,-1.1428571,-98.071429)" gradientUnits="userSpaceOnUse" id="linearGradient3725" x1="32.251034" x2="32.251034" xlink:href="#ButtonShadow-0" y1="6.1317081" y2="90.238609"/>
<linearGradient gradientTransform="translate(0,-97)" gradientUnits="userSpaceOnUse" id="linearGradient3721" x1="32.251034" x2="32.251034" xlink:href="#ButtonShadow-0" y1="6.1317081" y2="90.238609"/>
<linearGradient gradientTransform="matrix(1.0238095,0,0,1.0119048,-1.1428571,-98.071429)" gradientUnits="userSpaceOnUse" id="linearGradient3026" x1="32.251034" x2="32.251034" xlink:href="#ButtonShadow-0" y1="6.1317081" y2="90.238609"/>
</defs>
<path d="m 272.97858,41.316861 0,0 z" id="path2943"/>
<path d="m 239.28813,32.95069 8.3e-4,0 -8.3e-4,0 z" id="path2941"/>
<path d="m 12,-95.03125 c -5.5110903,0 -10.03125,4.52016 -10.03125,10.03125 l 0,71 c 0,5.5110902 4.5201598,10.03125 10.03125,10.03125 l 72,0 c 5.51109,0 10.03125,-4.5201597 10.03125,-10.03125 l 0,-71 c 0,-5.51109 -4.52016,-10.03125 -10.03125,-10.03125 l -72,0 z" fill="url(#linearGradient3026)" id="path3786" opacity="0.07999998" transform="scale(1,-1)"/>
<path d="m 12,-94.03125 c -4.971633,0 -9.03125,4.059617 -9.03125,9.03125 l 0,71 c 0,4.9716329 4.0596171,9.03125 9.03125,9.03125 l 72,0 c 4.971633,0 9.03125,-4.059617 9.03125,-9.03125 l 0,-71 c 0,-4.971633 -4.059617,-9.03125 -9.03125,-9.03125 l -72,0 z" fill="url(#linearGradient3780)" id="path3778" opacity="0.1" transform="scale(1,-1)"/>
<path d="m 12,-93 c -4.4091333,0 -8,3.590867 -8,8 l 0,71 c 0,4.4091333 3.5908667,8 8,8 l 72,0 c 4.409133,0 8,-3.5908667 8,-8 l 0,-71 c 0,-4.409133 -3.590867,-8 -8,-8 l -72,0 z" fill="url(#linearGradient3772)" id="path3770" opacity="0.2" transform="scale(1,-1)"/>
<rect fill="url(#linearGradient3725)" height="85" id="rect3723" opacity="0.3" rx="7" transform="scale(1,-1)" width="86" x="5" y="-92"/>
<rect fill="url(#linearGradient3721)" height="84" id="rect3716" opacity="0.45" rx="6" transform="scale(1,-1)" width="84" x="6" y="-91"/>
<rect fill="#4b5d4f" height="84" id="rect2419" rx="6" width="84" x="6" y="6"/>
<path d="M 12,6 C 8.676,6 6,8.676 6,12 l 0,2 0,68 0,2 c 0,0.334721 0.04135,0.6507 0.09375,0.96875 0.0487,0.295596 0.09704,0.596915 0.1875,0.875 0.00988,0.03038 0.020892,0.0636 0.03125,0.09375 0.098865,0.287771 0.2348802,0.547452 0.375,0.8125 0.1445918,0.273507 0.3156161,0.535615 0.5,0.78125 0.1843839,0.245635 0.3737765,0.473472 0.59375,0.6875 0.439947,0.428056 0.94291,0.814526 1.5,1.09375 0.278545,0.139612 0.5734731,0.246947 0.875,0.34375 -0.2562018,-0.100222 -0.4867109,-0.236272 -0.71875,-0.375 -0.00741,-0.0044 -0.023866,0.0045 -0.03125,0 -0.031933,-0.0193 -0.062293,-0.04251 -0.09375,-0.0625 -0.120395,-0.0767 -0.2310226,-0.163513 -0.34375,-0.25 -0.1061728,-0.0808 -0.2132809,-0.161112 -0.3125,-0.25 C 8.4783201,88.557317 8.3087904,88.373362 8.15625,88.1875 8.0486711,88.057245 7.9378561,87.922215 7.84375,87.78125 7.818661,87.74287 7.805304,87.69538 7.78125,87.65625 7.716487,87.553218 7.6510225,87.451733 7.59375,87.34375 7.4927417,87.149044 7.3880752,86.928049 7.3125,86.71875 7.30454,86.69694 7.288911,86.6782 7.28125,86.65625 7.2494249,86.5643 7.2454455,86.469419 7.21875,86.375 7.1884177,86.268382 7.1483606,86.171969 7.125,86.0625 7.0521214,85.720988 7,85.364295 7,85 L 7,83 7,15 7,13 C 7,10.218152 9.2181517,8 12,8 l 2,0 68,0 2,0 c 2.781848,0 5,2.218152 5,5 l 0,2 0,68 0,2 c 0,0.364295 -0.05212,0.720988 -0.125,1.0625 -0.04415,0.206893 -0.08838,0.397658 -0.15625,0.59375 -0.0077,0.02195 -0.0233,0.04069 -0.03125,0.0625 -0.06274,0.173739 -0.138383,0.367449 -0.21875,0.53125 -0.04158,0.0828 -0.07904,0.169954 -0.125,0.25 -0.0546,0.09721 -0.126774,0.18835 -0.1875,0.28125 -0.09411,0.140965 -0.204921,0.275995 -0.3125,0.40625 -0.143174,0.17445 -0.303141,0.346998 -0.46875,0.5 -0.01117,0.0102 -0.01998,0.02115 -0.03125,0.03125 -0.138386,0.125556 -0.285091,0.234436 -0.4375,0.34375 -0.102571,0.07315 -0.204318,0.153364 -0.3125,0.21875 -0.0074,0.0045 -0.02384,-0.0044 -0.03125,0 -0.232039,0.138728 -0.462548,0.274778 -0.71875,0.375 0.301527,-0.0968 0.596455,-0.204138 0.875,-0.34375 0.55709,-0.279224 1.060053,-0.665694 1.5,-1.09375 0.219973,-0.214028 0.409366,-0.441865 0.59375,-0.6875 0.184384,-0.245635 0.355408,-0.507743 0.5,-0.78125 0.14012,-0.265048 0.276135,-0.524729 0.375,-0.8125 0.01041,-0.03078 0.02133,-0.06274 0.03125,-0.09375 0.09046,-0.278085 0.1388,-0.579404 0.1875,-0.875 C 89.95865,84.6507 90,84.334721 90,84 l 0,-2 0,-68 0,-2 C 90,8.676 87.324,6 84,6 L 12,6 z" fill="url(#linearGradient3188)" id="rect3728" opacity="0.3"/>
<path d="M 12,90 C 8.676,90 6,87.324 6,84 L 6,82 6,14 6,12 c 0,-0.334721 0.04135,-0.6507 0.09375,-0.96875 0.0487,-0.295596 0.09704,-0.596915 0.1875,-0.875 C 6.29113,10.12587 6.302142,10.09265 6.3125,10.0625 6.411365,9.774729 6.5473802,9.515048 6.6875,9.25 6.8320918,8.976493 7.0031161,8.714385 7.1875,8.46875 7.3718839,8.223115 7.5612765,7.995278 7.78125,7.78125 8.221197,7.353194 8.72416,6.966724 9.28125,6.6875 9.559795,6.547888 9.8547231,6.440553 10.15625,6.34375 9.9000482,6.443972 9.6695391,6.580022 9.4375,6.71875 c -0.00741,0.0044 -0.023866,-0.0045 -0.03125,0 -0.031933,0.0193 -0.062293,0.04251 -0.09375,0.0625 -0.120395,0.0767 -0.2310226,0.163513 -0.34375,0.25 -0.1061728,0.0808 -0.2132809,0.161112 -0.3125,0.25 C 8.4783201,7.442683 8.3087904,7.626638 8.15625,7.8125 8.0486711,7.942755 7.9378561,8.077785 7.84375,8.21875 7.818661,8.25713 7.805304,8.30462 7.78125,8.34375 7.716487,8.446782 7.6510225,8.548267 7.59375,8.65625 7.4927417,8.850956 7.3880752,9.071951 7.3125,9.28125 7.30454,9.30306 7.288911,9.3218 7.28125,9.34375 7.2494249,9.4357 7.2454455,9.530581 7.21875,9.625 7.1884177,9.731618 7.1483606,9.828031 7.125,9.9375 7.0521214,10.279012 7,10.635705 7,11 l 0,2 0,68 0,2 c 0,2.781848 2.2181517,5 5,5 l 2,0 68,0 2,0 c 2.781848,0 5,-2.218152 5,-5 l 0,-2 0,-68 0,-2 C 89,10.635705 88.94788,10.279012 88.875,9.9375 88.83085,9.730607 88.78662,9.539842 88.71875,9.34375 88.71105,9.3218 88.69545,9.30306 88.6875,9.28125 88.62476,9.107511 88.549117,8.913801 88.46875,8.75 88.42717,8.6672 88.38971,8.580046 88.34375,8.5 88.28915,8.40279 88.216976,8.31165 88.15625,8.21875 88.06214,8.077785 87.951329,7.942755 87.84375,7.8125 87.700576,7.63805 87.540609,7.465502 87.375,7.3125 87.36383,7.3023 87.35502,7.29135 87.34375,7.28125 87.205364,7.155694 87.058659,7.046814 86.90625,6.9375 86.803679,6.86435 86.701932,6.784136 86.59375,6.71875 c -0.0074,-0.0045 -0.02384,0.0044 -0.03125,0 -0.232039,-0.138728 -0.462548,-0.274778 -0.71875,-0.375 0.301527,0.0968 0.596455,0.204138 0.875,0.34375 0.55709,0.279224 1.060053,0.665694 1.5,1.09375 0.219973,0.214028 0.409366,0.441865 0.59375,0.6875 0.184384,0.245635 0.355408,0.507743 0.5,0.78125 0.14012,0.265048 0.276135,0.524729 0.375,0.8125 0.01041,0.03078 0.02133,0.06274 0.03125,0.09375 0.09046,0.278085 0.1388,0.579404 0.1875,0.875 C 89.95865,11.3493 90,11.665279 90,12 l 0,2 0,68 0,2 c 0,3.324 -2.676,6 -6,6 l -72,0 z" fill="url(#radialGradient3619)" id="path3615" opacity="0.15"/>
<rect clip-path="url(#clipPath3613)" fill="url(#linearGradient3613)" filter="url(#filter3794)" height="66" id="rect3171" opacity="0.10000000000000001" rx="12" stroke="#ffffff" stroke-linecap="round" stroke-width="0.50000000000000000" width="66" x="15" y="15"/>
<path d="m 14,8.03125 c -3.274524,0 -5.96875,2.694226 -5.96875,5.96875 l 0,68 c 0,3.274524 2.694226,5.96875 5.96875,5.96875 l 68,0 c 3.274524,0 5.96875,-2.694226 5.96875,-5.96875 l 0,-68 C 87.96875,10.725476 85.274524,8.03125 82,8.03125 l -68,0 z m 0.71875,6.9375 66.0625,0 0,19.875 C 66.47773,30.201757 50.955059,29.644052 37.75,31.90625 L 34.78125,25.75 A 1.972469,1.972469 0 0 0 33,24.65625 l -12.8125,0 a 1.972469,1.972469 0 0 0 -1.78125,2.8125 l 4.125,8.75 c -2.962149,1.240379 -5.550825,2.651915 -7.8125,4.25 l 0,-25.5 z M 59.125,41.40625 c 3.116696,0.347581 6.079065,0.875023 8.625,1.65625 3.631809,1.11443 6.340096,2.679559 7.875,4.28125 -0.04686,0.01556 -0.01313,0.01554 -0.0625,0.03125 L 63.5,50.3125 59.125,41.40625 z m -31.40625,5.75 L 32.75,57.75 l -10.78125,2.625 -0.03125,0 c -0.479434,0.04749 -0.75484,0.04241 -0.9375,0.03125 0.126653,0.103042 -0.0424,-0.143403 -0.09375,-1.3125 -0.0012,-0.02771 0.001,-0.0027 0,-0.03125 -0.100716,-5.258133 2.523204,-9.004447 6.8125,-11.90625 z m 53.0625,11.40625 0,22.46875 -66.0625,0 0,-4.3125 L 51.9375,66.5 a 1.972469,1.972469 0 0 0 1.21875,-1 1.972469,1.972469 0 0 0 1.5625,0.21875 l 26.0625,-7.15625 z" id="path4351" opacity="0.1" transform="matrix(1.0007819,0,0,1.0007819,-0.03752932,0.96247068)"/>
<path d="m 14,9 c -2.746376,0 -5,2.253624 -5,5 l 0,68 c 0,2.746376 2.253624,5 5,5 l 68,0 c 2.746376,0 5,-2.253624 5,-5 L 87,14 C 87,11.253624 84.746376,9 82,9 L 14,9 z m -0.25,5 68,0 0,22.125 C 67.028719,31.062666 50.747706,30.518358 37.15625,32.96875 L 33.875,26.1875 A 0.98831057,0.98831057 0 0 0 33,25.625 l -12.8125,0 a 0.98831057,0.98831057 0 0 0 -0.90625,1.40625 l 4.5625,9.65625 C 19.81771,38.280909 16.451569,40.215639 13.75,42.40625 L 13.75,14 z m 37.84375,26 c 5.952286,-0.05972 11.78207,0.696469 16.4375,2.125 4.469103,1.371356 7.747859,3.40129 9.1875,5.65625 -0.155066,0.08306 -0.527523,0.252652 -1.28125,0.5 l -0.03125,0 c -0.03877,0.01261 -0.02222,0.01844 -0.0625,0.03125 L 62.9375,51.4375 57.90625,41.21875 a 0.98831057,0.98831057 0 0 0 -0.84375,-0.5625 c -1.688374,-0.07195 -3.261339,-0.08458 -4.75,-0.0625 -3.18487,0.04725 -6.030236,0.31598 -8.78125,0.71875 a 0.98831057,0.98831057 0 0 0 -0.71875,1.40625 l 10.5,21.53125 a 0.98831057,0.98831057 0 0 0 1.125,0.5 l 27.3125,-7.5 0,24.75 -68,0 0,-6.0625 37.90625,-10.40625 a 0.98831057,0.98831057 0 0 0 0.625,-1.375 l -11.1875,-23.125 c 3.422214,-0.633843 6.956847,-0.995703 10.5,-1.03125 z m -23.46875,5.6875 6,12.71875 -12,2.9375 -0.15625,0.03125 c -0.567731,0.05274 -1.020367,0.03672 -1.28125,0 -0.273609,-0.03851 -0.322421,-0.07191 -0.375,-0.125 -0.105157,-0.106175 -0.324398,-0.726041 -0.375,-2.15625 -0.127944,-6.02856 3.094594,-10.287965 8.1875,-13.40625 z" id="path4346" opacity="0.15" transform="translate(0,1)"/>
<path d="m 14,10 c -2.216,0 -4,1.784 -4,4 l 0,68 c 0,2.216 1.784,4 4,4 l 68,0 c 2.216,0 4,-1.784 4,-4 l 0,-68 c 0,-2.216 -1.784,-4 -4,-4 l -68,0 z m -1.25,3 70,0 0,24.4375 C 67.63873,31.922271 50.56055,31.387055 36.59375,34.03125 L 33,26.625 l -12.8125,0 4.96875,10.53125 C 19.95771,39.093424 15.69057,41.561221 12.75,44.375 L 12.75,13 z m 38.84375,26 c 12.08398,-0.121232 23.6182,3.05429 26.71875,8.5625 0.16522,0.801539 -0.13313,1.043855 -2.15625,1.6875 l -13.75,3.34375 -5.375,-10.9375 c -1.66709,-0.07104 -3.24652,-0.08434 -4.71875,-0.0625 -3.14241,0.04662 -5.91205,0.290303 -8.625,0.6875 l 10.5,21.53125 28.5625,-7.84375 0,27.03125 -70,0 0,-7.78125 38.65625,-10.625 L 39.625,40.25 C 43.4864,39.438342 47.56576,39.040411 51.59375,39 z m -23.0625,5.21875 7.03125,14.875 -13.375,3.25 -0.0625,0 C 19.54468,62.599349 19.0425,62.092717 18.9375,59.125 18.79357,52.343208 22.68814,47.485516 28.53125,44.21875 z" id="path4342" opacity="0.3" transform="translate(0,1)"/>
<path d="m 14,10 c -2.216,0 -4,1.784 -4,4 l 0,68 c 0,2.216 1.784,4 4,4 l 68,0 c 2.216,0 4,-1.784 4,-4 l 0,-68 c 0,-2.216 -1.784,-4 -4,-4 l -68,0 z m -1.25,3 70,0 0,24.4375 C 67.63873,31.922271 50.56055,31.387055 36.59375,34.03125 L 33,26.625 l -12.8125,0 4.96875,10.53125 C 19.95771,39.093424 15.69057,41.561221 12.75,44.375 L 12.75,13 z m 38.84375,26 c 12.08398,-0.121232 23.6182,3.05429 26.71875,8.5625 0.16522,0.801539 -0.13313,1.043855 -2.15625,1.6875 l -13.75,3.34375 -5.375,-10.9375 c -1.66709,-0.07104 -3.24652,-0.08434 -4.71875,-0.0625 -3.14241,0.04662 -5.91205,0.290303 -8.625,0.6875 l 10.5,21.53125 28.5625,-7.84375 0,27.03125 -70,0 0,-7.78125 38.65625,-10.625 L 39.625,40.25 C 43.4864,39.438342 47.56576,39.040411 51.59375,39 z m -23.0625,5.21875 7.03125,14.875 -13.375,3.25 -0.0625,0 C 19.54468,62.599349 19.0425,62.092717 18.9375,59.125 18.79357,52.343208 22.68814,47.485516 28.53125,44.21875 z" fill="#c8dc25" id="rect2934"/>
<path d="M 12.75 12.5 L 12.75 13 L 82.75 13 L 82.75 12.5 L 12.75 12.5 z M 20.1875 26.625 L 24.96875 36.75 C 25.034684 36.725146 25.090013 36.680932 25.15625 36.65625 L 20.4375 26.625 L 20.1875 26.625 z M 51.59375 38.5 C 47.56576 38.540411 43.4864 38.938342 39.625 39.75 L 39.84375 40.21875 C 43.641563 39.437102 47.64025 39.039664 51.59375 39 C 63.67773 38.878768 75.21195 42.05429 78.3125 47.5625 C 78.317033 47.584493 78.308691 47.603829 78.3125 47.625 C 78.371019 47.46452 78.359858 47.292251 78.3125 47.0625 C 75.21195 41.55429 63.67773 38.378768 51.59375 38.5 z M 43.90625 42.25 C 43.834167 42.260324 43.759497 42.270709 43.6875 42.28125 L 54.1875 63.8125 L 82.75 55.96875 L 82.75 55.46875 L 54.1875 63.3125 L 43.90625 42.25 z M 28.53125 43.71875 C 22.907348 46.862961 19.119034 51.486131 18.96875 57.875 C 19.299424 51.74133 23.053334 47.281343 28.53125 44.21875 L 35.34375 58.65625 L 35.5625 58.59375 L 28.53125 43.71875 z M 51.1875 64.15625 L 12.75 74.71875 L 12.75 75.21875 L 51.40625 64.59375 L 51.1875 64.15625 z M 10 81.5 L 10 82 C 10 84.216 11.784 86 14 86 L 82 86 C 84.216 86 86 84.216 86 82 L 86 81.5 C 86 83.716 84.216 85.5 82 85.5 L 14 85.5 C 11.784 85.5 10 83.716 10 81.5 z " id="path4330" opacity="0.15"/>
<path d="M 14 10 C 11.784 10 10 11.784 10 14 L 10 14.5 C 10 12.284 11.784 10.5 14 10.5 L 82 10.5 C 84.216 10.5 86 12.284 86 14.5 L 86 14 C 86 11.784 84.216 10 82 10 L 14 10 z M 20.1875 26.625 L 20.4375 27.125 L 33 27.125 L 36.59375 34.53125 C 50.56055 31.887055 67.63873 32.422271 82.75 37.9375 L 82.75 37.4375 C 67.63873 31.922271 50.56055 31.387055 36.59375 34.03125 L 33 26.625 L 20.1875 26.625 z M 24.96875 37.25 C 19.859943 39.175812 15.653103 41.597073 12.75 44.375 L 12.75 44.875 C 15.69057 42.061221 19.95771 39.593424 25.15625 37.65625 L 24.96875 37.25 z M 39.84375 40.71875 C 39.772193 40.733477 39.696409 40.73499 39.625 40.75 L 51.1875 64.65625 L 51.40625 64.59375 L 39.84375 40.71875 z M 52.3125 41.59375 C 49.17009 41.64037 46.40045 41.884053 43.6875 42.28125 L 43.90625 42.75 C 46.550349 42.371305 49.253484 42.139133 52.3125 42.09375 C 53.78473 42.07191 55.36416 42.08521 57.03125 42.15625 L 62.40625 53.09375 L 76.15625 49.75 C 78.123858 49.124016 78.447521 48.875402 78.3125 48.125 C 78.166863 48.52439 77.599467 48.790848 76.15625 49.25 L 62.40625 52.59375 L 57.03125 41.65625 C 55.36416 41.58521 53.78473 41.57191 52.3125 41.59375 z M 35.34375 59.15625 L 22.1875 62.34375 L 22.125 62.34375 C 19.594881 62.594376 19.056235 62.097961 18.9375 59.28125 C 18.9376 59.396606 18.935028 59.508511 18.9375 59.625 C 19.0425 62.592717 19.54468 63.099349 22.125 62.84375 L 22.1875 62.84375 L 35.5625 59.59375 L 35.34375 59.15625 z M 12.75 83 L 12.75 83.5 L 82.75 83.5 L 82.75 83 L 12.75 83 z " fill="#ffffff" id="path4335" opacity="0.75"/>
</svg>
