<?xml version="1.0" standalone="no"?>
<!DOCTYPE svg PUBLIC "-//W3C//DTD SVG 20010904//EN" "http://www.w3.org/TR/2001/REC-SVG-20010904/DTD/svg10.dtd">
<!-- Created using Karbon, part of Calligra: http://www.calligra.org/karbon -->
<svg xmlns="http://www.w3.org/2000/svg" xmlns:xlink="http://www.w3.org/1999/xlink" width="595.277pt" height="841.891pt">
<defs/>
<g id="Background">
  <ellipse id="shape0" transform="translate(29.2323, 179.598)" rx="267.13849038461pt" ry="261.52296656271pt" cx="267.13849038461pt" cy="261.52296656271pt" fill="#ffffff" fill-rule="evenodd"/>
 </g><g id="layer0">
  <g id="g84" transform="translate(46.628, 215.35)" fill="none">
   <path id="path86" transform="translate(54.5608, 185.427)" fill="#00a0e1" d="M452.478 324.722C410.811 324.722 385.341 303.52 385.341 256.594C386.112 225.555 396.92 188.474 403.858 155.166C423.154 70.396 433.183 21.9433 433.183 13.6182C433.183 3.78082 429.328 0.748894 421.612 0.748894C386.883 0.748894 267.272 190.735 248.755 289.146C248.755 294.446 249.526 299.739 251.839 306.552C244.122 312.609 217.11 322.446 197.815 322.446C175.436 322.446 158.461 314.877 143.799 299.739C179.298 152.891 208.623 40.8692 208.623 13.6182C208.623 3.02466 203.997 0 196.273 0C175.436 0.748894 135.311 56.7632 96.7282 112.778C71.2582 149.866 55.0541 191.506 17.2419 280.813C12.3199 292.417 7.22738 301.659 0 308.479C61.2807 384.422 156.022 433.217 262.439 433.217C391.205 433.217 502.907 361.832 558.858 257.249C529.956 293.763 486.354 324.722 452.478 324.722"/>
  </g>
  <g id="g88" transform="translate(43.8065, 177.175)" fill="none">
   <path id="path90" transform="translate(42.5838, 2.4869e-13)" fill="#00a0e1" d="M69.2501 130.581C92.3261 130.581 110.791 144.181 110.791 167.599C110.791 196.314 99.2496 240.124 85.4025 293.013C156.175 184.979 230.789 128.317 278.486 128.317C307.709 128.317 331.561 144.181 331.561 177.425C331.561 215.952 325.406 258.26 313.864 291.496C384.636 180.444 460.019 128.317 504.642 128.317C535.41 128.317 556.942 153.245 556.942 182.708C556.942 265.814 508.484 384.421 508.484 435.038C508.484 450.147 508.484 467.528 516.176 467.528C536.947 467.528 591.567 402.556 600.027 402.556C601.143 402.556 601.985 402.955 602.694 403.558C608.598 379.16 611.813 353.739 611.813 327.57C611.813 146.663 462.487 0 278.286 0C162.019 0 59.7034 58.4618 0 147.047C28.4848 135.908 51.5829 130.581 69.2501 130.581"/>
  </g>
  <g id="g92" transform="translate(34.4607, 204.565)" fill="none">
   <path id="path94" transform="translate(-6.35266, 133.041)" fill="#00a0e1" d="M55.9322 41.2072C55.9322 26.5426 53.6846 12.4642 49.4079 0C18.0509 48.8436 0 105.881 0 166.856C0 195.758 4.08156 223.763 11.6828 250.45C42.2047 155.383 55.9322 76.233 55.9322 41.2072"/>
  </g>
 </g>
</svg>
